<svg width="73" height="72" viewBox="0 0 73 72" fill="none" xmlns="http://www.w3.org/2000/svg">
<path d="M35.5 42C43.4968 42 50 35.721 50 28C50 20.279 43.4968 14 35.5 14C27.5032 14 21 20.279 21 28C21 35.721 27.5032 42 35.5 42ZM35.5 21C39.4984 21 42.75 24.1395 42.75 28C42.75 31.8605 39.4984 35 35.5 35C31.5016 35 28.25 31.8605 28.25 28C28.25 24.1395 31.5016 21 35.5 21Z" fill="white"/>
<path d="M33.4338 70.3403C34.0367 70.7693 34.7591 71 35.5 71C36.2409 71 36.9633 70.7693 37.5662 70.3403C38.6492 69.577 64.103 51.2624 63.9997 28.4002C63.9997 12.7411 51.214 0 35.5 0C19.786 0 7.00031 12.7411 7.00031 28.3825C6.897 51.2624 32.3508 69.577 33.4338 70.3403ZM35.5 7.10006C47.2882 7.10006 56.8748 16.6532 56.8748 28.418C56.9496 44.173 41.2427 58.3199 35.5 62.9598C29.7609 58.3163 14.0504 44.1659 14.1252 28.4002C14.1252 16.6532 23.7118 7.10006 35.5 7.10006Z" fill="white"/>
</svg>
